<?xml version="1.0" encoding="UTF-8" standalone="no"?>
<!-- This Source Code Form is subject to the terms of the Mozilla Public
   - License, v. 2.0. If a copy of the MPL was not distributed with this
   - file, You can obtain one at http://mozilla.org/MPL/2.0/. -->

<!-- modified by MarsCat to 1. fit a 16x16 viewbox 2. change fill and stroke -->

<svg
   width="16"
   height="16"
   viewBox="0 0 16 16"
   fill="#808080"
   stroke="#ffffff"
   stroke-width="0.125"
   version="1.1"
   id="svg1"
   sodipodi:docname="switch_container.svg"
   inkscape:version="1.4 (86a8ad7, 2024-10-11)"
   inkscape:export-filename="switch_container.png"
   inkscape:export-xdpi="1536"
   inkscape:export-ydpi="1536"
   xmlns:inkscape="http://www.inkscape.org/namespaces/inkscape"
   xmlns:sodipodi="http://sodipodi.sourceforge.net/DTD/sodipodi-0.dtd"
   xmlns:xlink="http://www.w3.org/1999/xlink"
   xmlns="http://www.w3.org/2000/svg"
   xmlns:svg="http://www.w3.org/2000/svg">
  <defs
     id="defs1">
    <linearGradient
       id="linearGradient6"
       inkscape:collect="always">
      <stop
         style="stop-color:#38adff;stop-opacity:1;"
         offset="0"
         id="stop9" />
      <stop
         style="stop-color:#00c79a;stop-opacity:1;"
         offset="0.1499099"
         id="stop10" />
      <stop
         style="stop-color:#51cd00;stop-opacity:1;"
         offset="0.29857495"
         id="stop11" />
      <stop
         style="stop-color:#ffcb00;stop-opacity:1;"
         offset="0.43577394"
         id="stop12" />
      <stop
         style="stop-color:#ff9f00;stop-opacity:1;"
         offset="0.55741203"
         id="stop13" />
      <stop
         style="stop-color:#ff623d;stop-opacity:1;"
         offset="0.70198196"
         id="stop14" />
      <stop
         style="stop-color:#ff4bda;stop-opacity:1;"
         offset="0.84900898"
         id="stop15" />
      <stop
         style="stop-color:#af51f5;stop-opacity:1;"
         offset="1"
         id="stop8" />
    </linearGradient>
    <linearGradient
       inkscape:collect="always"
       xlink:href="#linearGradient6"
       id="linearGradient19"
       x1="3.9330575"
       y1="3.9328411"
       x2="12.067347"
       y2="12.06713"
       gradientUnits="userSpaceOnUse" />
  </defs>
  <sodipodi:namedview
     id="namedview1"
     pagecolor="#505050"
     bordercolor="#eeeeee"
     borderopacity="1"
     inkscape:showpageshadow="0"
     inkscape:pageopacity="0"
     inkscape:pagecheckerboard="0"
     inkscape:deskcolor="#505050"
     showgrid="true"
     inkscape:zoom="25.78125"
     inkscape:cx="8.2424242"
     inkscape:cy="4.9454545"
     inkscape:window-width="1920"
     inkscape:window-height="1027"
     inkscape:window-x="-8"
     inkscape:window-y="-8"
     inkscape:window-maximized="1"
     inkscape:current-layer="svg1">
    <inkscape:grid
       id="grid19"
       units="px"
       originx="0"
       originy="0"
       spacingx="1"
       spacingy="1"
       empcolor="#0099e5"
       empopacity="0.30196078"
       color="#0099e5"
       opacity="0.14901961"
       empspacing="5"
       enabled="true"
       visible="true" />
  </sodipodi:namedview>
  <path
     style="fill:#404040;fill-opacity:1;fill-rule:nonzero;stroke:#404040;stroke-width:2;stroke-linecap:round;stroke-linejoin:round;stroke-dasharray:none;stroke-opacity:1"
     d="M 2,2 V 14 H 14 V 2 Z"
     id="path19"
     inkscape:label="BKGR"
     sodipodi:nodetypes="ccccc" />
  <path
     d="m 2.9806782,5.7244674 c -0.03855,0 -0.07742,-0.00266 -0.116614,-0.00852 C 2.5000892,5.6629414 2.2569032,5.3752882 2.3211532,5.0732521 3.1175302,1.3231057 5.8728852,0.36266312 7.4444366,0.12428392 10.07322,-0.27337018 12.744728,0.72702432 13.594432,1.9114632 13.783326,2.174879 13.679242,2.5152688 13.361205,2.6716136 13.043168,2.8287576 12.632612,2.7411299 12.444038,2.4779804 11.920724,1.7481933 9.8059399,0.89535471 7.6856947,1.2155018 6.1838545,1.4434937 4.2624622,2.3317566 3.6395602,5.2660868 3.5820602,5.5348293 3.2996782,5.7244674 2.9806782,5.7244674 Z M 8.358856,13.688894 c -0.2765084,0 -0.5577147,-0.01944 -0.8439303,-0.06037 -2.5656113,-0.362235 -4.7989735,-2.322418 -5.1951045,-4.5585471 -0.05918,-0.3342555 0.180999,-0.649958 0.536107,-0.7056185 0.356361,-0.060372 0.691115,0.170809 0.750613,0.5044764 0.302187,1.7057372 2.1043459,3.2636342 4.1022219,3.5463532 1.0859933,0.151667 3.1123659,0.03475 4.4563919,-2.4929321 C 12.813994,8.7015591 11.984782,5.6570326 10.24807,4.2151673 9.2729314,3.4055906 8.2599014,3.3175356 7.2390437,3.95807 6.4436507,4.4566562 5.6144379,5.8870361 5.6482577,7.2199369 5.6745627,8.2751255 6.201275,9.0994271 7.2130524,9.6704599 7.556574,9.8639459 8.5351576,9.9873409 9.1047717,9.6097899 9.5503791,9.3144109 9.6831534,8.7260031 9.4996496,7.862533 9.3549758,7.1837135 8.6948626,5.9777418 8.3788973,5.9356282 8.3804873,5.9361971 8.265225,5.9697902 8.0723266,6.2419071 7.9170061,6.4604248 7.7663823,7.2773638 7.9699274,7.6348852 c 0.037888,0.067146 0.071085,0.1071978 0.2120005,0.1071978 0.360119,0 0.6522848,0.2744723 0.6522848,0.6134405 0,0.3389677 -0.2915395,0.6140294 -0.6516584,0.6140294 -0.6012417,0 -1.0850532,-0.2676991 -1.362188,-0.7548 C 6.3547171,7.3963415 6.6080529,6.0970137 6.9872734,5.5616148 7.5753632,4.7326017 8.2063537,4.6522031 8.6325461,4.7326017 10.108406,5.007074 10.773843,7.5966008 10.779167,7.6222218 11.145862,9.3453333 10.479798,10.199675 9.8566367,10.613151 8.8047768,11.310523 7.2556404,11.125284 6.5422918,10.722704 4.7730132,9.7243529 4.3703062,8.2830769 4.3443152,7.2493865 4.2964052,5.3628284 5.4271766,3.6196911 6.5159876,2.9370433 8.0234757,1.9917027 9.6994373,2.1221656 11.112355,3.2948591 c 2.074284,1.7222279 3.194723,5.3439722 2.220523,7.1760489 -1.104781,2.077393 -2.887839,3.217986 -4.974022,3.217986 z m -0.3110416,2.275551 c -0.6540327,0 -1.2398675,-0.08206 -1.7323119,-0.192852 -1.6088173,-0.361391 -3.1018183,-1.252156 -3.8971643,-2.325275 -0.195995,-0.264964 -0.11643,-0.621934 0.177562,-0.798484 0.293378,-0.176551 0.690898,-0.104439 0.887507,0.159696 1.043258,1.407709 4.4820766,3.144481 8.0723468,0.991613 0.293993,-0.175998 0.691205,-0.105267 0.887506,0.159697 0.195995,0.264688 0.116737,0.621657 -0.177255,0.798208 -1.536317,0.920881 -2.9967554,1.207397 -4.2181906,1.207397 z"
     id="path1"
     style="fill:url(#linearGradient19);fill-opacity:1;fill-rule:nonzero;stroke:none"
     inkscape:label="THUMB" />
</svg>
